<svg width="249" height="228" viewBox="0 0 249 228" fill="none" xmlns="http://www.w3.org/2000/svg">
<path d="M11.0978 131.601C4.31694 120.847 4.31694 107.153 11.0978 96.3992L52.5404 30.6723C58.5841 21.0871 69.1232 15.2731 80.4547 15.2731L168.545 15.2731C179.877 15.2731 190.416 21.0871 196.46 30.6723L237.902 96.3992C244.683 107.153 244.683 120.847 237.902 131.601L196.46 197.328C190.416 206.913 179.877 212.727 168.545 212.727L80.4548 212.727C69.1232 212.727 58.5841 206.913 52.5404 197.328L11.0978 131.601Z" fill="#8E482A"/>
<path d="M40.7518 97.24C41.0878 98.248 41.1358 99.304 41.1358 100.312C41.1358 100.696 41.1358 116.104 41.1358 119.08C41.1358 120.472 41.1838 121.816 40.7518 123.208C40.3678 124.456 39.6478 125.608 38.6878 126.52C38.5438 126.664 38.3038 126.856 38.1598 127H49.2958C49.1038 126.856 48.8638 126.664 48.7198 126.52C47.7598 125.608 47.0878 124.408 46.6558 123.208C46.2238 121.816 46.3198 120.472 46.3198 119.08C46.3198 118.456 46.3198 117.832 46.3198 117.256C47.4718 115.336 48.7198 114.28 49.7758 113.704C50.4958 113.368 51.2638 113.176 52.0798 113.08C52.3678 113.032 52.6558 112.984 52.9918 112.984C55.0558 116.584 57.1198 120.184 59.2318 123.784C59.3278 123.976 59.4238 124.312 59.4238 124.648C59.4238 125.224 59.1838 125.704 58.9438 126.04C58.7998 126.28 58.6078 126.424 58.4638 126.568C58.2718 126.76 58.0798 126.904 57.9838 127H68.0158C67.8238 126.904 67.5838 126.76 67.3438 126.52C67.2478 126.472 67.0558 126.28 66.7198 125.944C66.2878 125.464 65.9998 125.08 65.8558 124.888C65.5198 124.36 65.3758 124.072 64.9438 123.304C64.6078 122.776 64.3198 122.248 64.0318 121.768L58.4158 111.976C58.5598 111.928 58.7518 111.88 58.8958 111.832C59.9518 111.4 61.0558 110.92 61.9198 110.152C64.5598 107.848 64.7518 104.44 64.7518 103.864C64.8958 100.744 63.3598 98.488 62.4958 97.384C61.4398 96.04 60.0478 94.936 58.4638 94.264C56.9758 93.64 55.4878 93.496 53.9518 93.448H38.1598C38.3518 93.592 38.5438 93.736 38.6878 93.928C39.6478 94.84 40.3678 95.992 40.7518 97.24ZM46.3198 97.384C46.3198 96.52 46.7998 95.8 47.5198 95.416C47.8078 95.272 48.1438 95.176 48.5278 95.176C48.5278 95.176 51.8398 95.176 52.0798 95.176C56.0638 95.272 59.3758 98.392 59.8558 102.328C60.1918 104.824 59.3278 107.416 57.5998 109.192C56.8798 109.96 56.1118 110.44 55.1518 110.728C54.1438 111.016 52.9918 111.064 51.7918 111.352C50.5438 111.592 49.2958 112.072 48.2878 112.84C47.5198 113.368 46.8478 113.992 46.3198 114.712C46.3198 113.224 46.3198 97.384 46.3198 97.384ZM86.0994 121.528C85.4754 121.336 84.9474 121.48 84.7554 121.576C83.7954 121.864 83.4594 122.872 82.9794 123.688C82.6434 124.216 82.2594 124.744 81.6834 124.936C81.0594 125.176 80.3394 125.272 79.6674 125.32C78.8514 125.32 77.7954 125.32 77.0274 125.032C76.3074 124.744 75.6354 124.312 75.1074 123.688C74.4354 122.92 74.0994 121.912 74.0514 120.856C74.2434 120.472 74.5314 119.896 75.0114 119.32C75.4914 118.792 76.0194 118.312 76.5954 117.88C77.1714 117.496 77.7954 117.256 78.4194 117.064C79.3314 116.872 80.1954 116.824 81.1074 116.824C82.7394 116.776 84.3714 116.824 86.0514 116.824C86.5794 116.824 87.1554 116.824 87.7314 116.824C87.7314 116.824 87.7314 116.392 87.7314 116.344C87.4434 113.8 86.6274 111.304 84.6114 109.528C83.9874 109 83.3154 108.52 82.5474 108.136C79.1874 106.504 74.8674 106.984 71.9874 109.384C66.8994 113.704 67.8114 123.016 73.8114 126.04C75.0594 126.664 76.4994 127 77.9394 127.096C80.5794 127.24 83.6994 126.904 85.9554 125.32C86.3874 124.984 87.5874 123.832 87.2514 122.68C87.1074 122.152 86.6274 121.72 86.0994 121.528ZM74.0034 113.608C74.0994 112.456 74.0994 111.4 74.7234 110.584C75.6834 109.288 77.2674 109.096 77.6514 109.048C78.0834 109 79.3794 108.856 80.5794 109.624C82.0674 110.584 82.3554 112.216 82.4994 112.888C82.6434 113.8 82.5954 114.568 82.4994 115.048C82.4994 115.048 81.6834 115.048 81.5874 115.048C79.5234 115.144 77.5074 115.24 75.6354 116.344C75.0594 116.728 74.4834 117.208 74.0034 117.736C74.0034 117.544 74.0034 113.656 74.0034 113.608ZM108.811 122.728C108.619 122.152 108.139 121.72 107.611 121.576C107.035 121.336 106.507 121.528 106.315 121.576C105.259 121.912 104.971 122.968 104.443 123.832C103.723 124.936 102.763 125.224 101.467 125.272C100.651 125.32 99.7866 125.32 98.9706 125.08C97.0026 124.648 95.7066 122.824 95.6106 120.808C95.6106 120.76 95.6106 120.712 95.6106 120.664C95.6106 119.512 95.5626 114.712 95.6586 113.464C95.7066 112.408 95.9946 111.4 96.7146 110.632C97.8666 109.288 99.3546 109.048 100.987 109.048C102.379 109 103.579 109.288 104.251 110.584C104.683 111.592 104.683 112.936 105.739 113.512C105.931 113.608 106.411 113.896 107.035 113.8C107.563 113.752 108.139 113.416 108.427 112.888C108.955 111.88 107.995 110.488 107.659 110.104C106.459 108.808 104.683 107.848 102.955 107.512C98.0106 106.504 92.6346 108.472 90.9066 113.512C90.5706 114.424 90.4266 115.432 90.4266 116.44V117.88C90.4266 120.328 91.3866 122.68 93.1146 124.36C94.8906 126.088 97.1466 126.856 99.4986 127C99.8346 127 100.171 127.048 100.555 127.048C102.907 127.048 105.499 126.76 107.515 125.32C107.899 124.984 109.147 123.832 108.811 122.728ZM129.037 121.528C128.413 121.336 127.885 121.48 127.693 121.576C126.733 121.864 126.397 122.872 125.917 123.688C125.581 124.216 125.197 124.744 124.621 124.936C123.997 125.176 123.277 125.272 122.605 125.32C121.789 125.32 120.733 125.32 119.965 125.032C119.245 124.744 118.573 124.312 118.045 123.688C117.373 122.92 117.037 121.912 116.989 120.856C117.181 120.472 117.469 119.896 117.949 119.32C118.429 118.792 118.957 118.312 119.533 117.88C120.109 117.496 120.733 117.256 121.357 117.064C122.269 116.872 123.133 116.824 124.045 116.824C125.677 116.776 127.309 116.824 128.989 116.824C129.517 116.824 130.093 116.824 130.669 116.824C130.669 116.824 130.669 116.392 130.669 116.344C130.381 113.8 129.565 111.304 127.549 109.528C126.925 109 126.253 108.52 125.485 108.136C122.125 106.504 117.805 106.984 114.925 109.384C109.837 113.704 110.749 123.016 116.749 126.04C117.997 126.664 119.437 127 120.877 127.096C123.517 127.24 126.637 126.904 128.893 125.32C129.325 124.984 130.525 123.832 130.189 122.68C130.045 122.152 129.565 121.72 129.037 121.528ZM116.941 113.608C117.037 112.456 117.037 111.4 117.661 110.584C118.621 109.288 120.205 109.096 120.589 109.048C121.021 109 122.317 108.856 123.517 109.624C125.005 110.584 125.293 112.216 125.437 112.888C125.581 113.8 125.533 114.568 125.437 115.048C125.437 115.048 124.621 115.048 124.525 115.048C122.461 115.144 120.445 115.24 118.573 116.344C117.997 116.728 117.421 117.208 116.941 117.736C116.941 117.544 116.941 113.656 116.941 113.608ZM154.404 113.848C154.212 113.128 153.924 112.456 153.54 111.784C151.908 109.048 148.884 107.224 145.716 107.272C144.996 107.272 144.228 107.416 143.652 107.8C142.5 108.52 141.924 110.008 140.484 110.2V107.272C140.484 107.272 133.092 107.272 132.276 107.272C132.468 107.464 132.66 107.608 132.852 107.8C133.764 108.712 134.484 109.864 134.868 111.112C135.3 112.504 135.252 113.848 135.252 115.288C135.252 118.216 135.252 130.456 135.252 131.416C135.204 132.616 135.396 133.864 134.868 134.968C134.484 135.88 133.668 136.504 132.852 136.936C132.612 137.032 132.372 137.128 132.276 137.176C132.276 137.176 133.428 137.416 134.004 137.608C136.644 138.328 138.9 139.576 140.484 140.968C140.484 140.968 140.484 127.24 140.484 127.048H145.668C150.708 127.048 154.788 122.92 154.788 117.88C154.788 116.488 154.74 115.144 154.404 113.848ZM149.556 120.808C149.508 121.864 149.172 122.92 148.452 123.736C147.684 124.6 146.58 125.176 145.428 125.272C145.332 125.272 142.692 125.272 142.692 125.272C141.492 125.272 140.484 124.312 140.484 123.064V111.976C141.444 111.928 142.26 111.544 142.932 110.872C143.364 110.44 143.748 109.96 144.18 109.576C146.004 108.04 148.5 109.864 149.22 111.688C149.412 112.264 149.556 112.888 149.556 113.464C149.556 113.512 149.556 120.76 149.556 120.808ZM162.215 106.36C163.943 106.36 165.383 104.968 165.383 103.192C165.383 101.464 163.943 100.024 162.215 100.024C160.439 100.024 159.047 101.464 159.047 103.192C159.047 104.968 160.439 106.36 162.215 106.36ZM157.175 127H168.215C168.023 126.856 167.879 126.712 167.687 126.52C166.727 125.608 166.055 124.456 165.623 123.208C165.335 122.248 165.287 121.24 165.287 120.28C165.239 116.632 165.287 108.088 165.239 107.512C163.703 108.904 161.447 110.104 158.807 110.872C158.231 111.064 157.079 111.304 157.079 111.304C157.175 111.352 157.415 111.4 157.607 111.544C157.943 111.688 158.999 112.264 159.623 113.464C160.007 114.28 160.055 115 160.055 115.432C160.055 116.632 160.055 117.832 160.055 118.984C160.055 119.992 160.103 121 159.911 122.008C159.575 123.88 158.615 125.704 157.175 127ZM187.068 121.528C186.444 121.336 185.916 121.48 185.724 121.576C184.764 121.864 184.428 122.872 183.948 123.688C183.612 124.216 183.228 124.744 182.652 124.936C182.028 125.176 181.308 125.272 180.636 125.32C179.82 125.32 178.764 125.32 177.996 125.032C177.276 124.744 176.604 124.312 176.076 123.688C175.404 122.92 175.068 121.912 175.02 120.856C175.212 120.472 175.5 119.896 175.98 119.32C176.46 118.792 176.988 118.312 177.564 117.88C178.14 117.496 178.764 117.256 179.388 117.064C180.3 116.872 181.164 116.824 182.076 116.824C183.708 116.776 185.34 116.824 187.02 116.824C187.548 116.824 188.124 116.824 188.7 116.824C188.7 116.824 188.7 116.392 188.7 116.344C188.412 113.8 187.596 111.304 185.58 109.528C184.956 109 184.284 108.52 183.516 108.136C180.156 106.504 175.836 106.984 172.956 109.384C167.868 113.704 168.78 123.016 174.78 126.04C176.028 126.664 177.468 127 178.908 127.096C181.548 127.24 184.668 126.904 186.924 125.32C187.356 124.984 188.556 123.832 188.22 122.68C188.076 122.152 187.596 121.72 187.068 121.528ZM174.972 113.608C175.068 112.456 175.068 111.4 175.692 110.584C176.652 109.288 178.236 109.096 178.62 109.048C179.052 109 180.348 108.856 181.548 109.624C183.036 110.584 183.324 112.216 183.468 112.888C183.612 113.8 183.564 114.568 183.468 115.048C183.468 115.048 182.652 115.048 182.556 115.048C180.492 115.144 178.476 115.24 176.604 116.344C176.028 116.728 175.452 117.208 174.972 117.736C174.972 117.544 174.972 113.656 174.972 113.608ZM203.059 127C203.059 127 203.059 127 203.107 127C205.507 126.664 208.051 125.656 209.491 123.592C210.451 122.248 210.499 120.424 209.923 118.936C209.587 118.216 209.107 117.448 208.483 116.968C207.427 116.104 205.939 115.768 204.691 115.384C203.251 114.952 201.859 114.52 200.563 113.8C200.083 113.56 199.699 113.272 199.315 112.936C198.979 112.552 198.739 112.12 198.643 111.592C198.499 110.392 199.555 109.336 200.611 108.952C201.427 108.664 202.291 108.568 203.155 108.664C203.827 108.712 204.787 108.856 205.219 109.48C205.411 109.768 205.507 110.104 205.555 110.44C205.699 111.4 206.083 112.264 207.091 112.552C207.667 112.744 208.339 112.6 208.771 112.264C209.299 111.88 209.395 111.256 209.203 110.68C208.579 108.808 206.563 107.848 204.787 107.416C202.099 106.84 199.075 106.84 196.579 108.04C195.475 108.616 194.371 109.48 193.747 110.584C192.931 112.072 192.979 113.944 193.843 115.336C194.707 116.68 196.339 117.304 199.603 118.504C200.899 118.984 202.291 119.272 203.443 119.944C204.499 120.568 205.363 121.864 205.027 123.16C204.883 123.688 204.547 124.12 204.115 124.456C202.243 125.944 199.411 125.8 197.299 124.936C196.627 124.696 195.859 124.312 195.523 123.64C195.139 122.872 195.331 121.96 195.139 121.144C194.803 119.368 192.451 119.416 191.875 121.048C191.203 122.92 192.883 124.456 194.323 125.272C196.915 126.808 200.035 127.384 203.059 127Z" fill="#DDCFAC"/>
<path d="M49.4606 152.904C49.4606 152.312 48.9966 151.848 48.4206 151.848C48.4846 151.784 48.5486 151.72 48.6286 151.656C48.9966 151.384 49.4286 151.208 49.8606 151.064C49.9886 151.032 50.1006 151 50.2126 150.984C50.2126 151.128 50.2126 153.368 50.2126 154.36C50.2126 154.824 50.2446 155.272 50.1006 155.736C49.9566 156.152 49.7326 156.536 49.4126 156.84C49.3486 156.888 49.2846 156.952 49.2206 157H52.9486C52.8846 156.952 52.8206 156.888 52.7566 156.84C52.4366 156.536 52.1966 156.152 52.0686 155.736C51.9246 155.272 51.9566 154.824 51.9566 154.36C51.9566 153.368 51.9566 151.064 51.9566 150.904C52.1646 150.92 52.3886 150.952 52.6126 150.984C53.0606 151.08 53.5086 151.208 53.9086 151.4C54.3086 151.576 54.6926 151.8 55.0126 152.104C55.1406 152.2 55.2526 152.328 55.3646 152.44C55.3646 153.08 55.3646 153.72 55.3646 154.36C55.3646 154.824 55.3966 155.272 55.2526 155.736C55.1086 156.152 54.8846 156.536 54.5646 156.84C54.5006 156.888 54.4366 156.952 54.3726 157H58.0846C58.0206 156.952 57.9566 156.888 57.9086 156.84C57.5886 156.536 57.3486 156.152 57.2206 155.736C57.0766 155.272 57.0926 154.824 57.0926 154.36C57.0926 153.368 57.0766 147.528 57.2206 147.08C57.3486 146.664 57.5886 146.28 57.9086 145.976C57.9566 145.912 58.0206 145.864 58.0846 145.816H52.6286C52.5326 145.816 52.4206 145.816 52.3086 145.816C52.2606 145.816 52.2286 145.832 52.1806 145.832C51.8766 145.848 51.6206 145.864 51.3326 145.992C51.1406 146.056 50.8366 146.184 50.6126 146.488C50.4526 146.696 50.3886 146.888 50.3246 147.08C50.1806 147.528 50.2126 149.72 50.2126 150.344C50.0366 150.392 49.8606 150.44 49.6686 150.504C49.1886 150.696 48.7246 150.936 48.3246 151.288C47.8766 151.672 47.3646 152.28 47.3646 152.904C47.3486 153.48 47.8446 153.96 48.4046 153.96C48.9966 153.96 49.4606 153.48 49.4606 152.904ZM51.9566 147.352C51.9566 147.32 51.9566 147.272 51.9566 147.24C51.9566 146.744 52.3406 146.36 52.8366 146.36H54.4846C54.9806 146.36 55.3646 146.744 55.3646 147.24V147.352V147.88C55.3646 147.96 55.3646 148.376 55.3646 148.456V149.464C55.3646 150.232 55.3646 150.76 55.3646 151.096C55.0126 150.856 54.6286 150.68 54.2446 150.536C53.7486 150.36 53.2366 150.248 52.7246 150.184C52.4686 150.152 52.2126 150.136 51.9566 150.136C51.9566 149.512 51.9566 148.872 51.9566 148.248C51.9566 147.944 51.9566 147.656 51.9566 147.352ZM66.2176 156.84C65.8976 156.536 65.6736 156.152 65.5296 155.736C65.3856 155.288 65.4176 154.824 65.4176 154.36C65.4176 153.992 65.4176 150.632 65.4176 150.424C64.8896 150.888 64.1376 151.304 63.2576 151.56C63.0656 151.608 62.6816 151.688 62.6816 151.688C62.7136 151.704 62.7936 151.736 62.8736 151.784C63.1456 151.912 63.4176 152.136 63.5456 152.424C63.6256 152.6 63.6736 152.792 63.6736 152.984C63.6896 153.08 63.6896 155.416 63.6896 155.416C63.2096 155.448 62.8896 155.688 62.5856 156.008C62.4576 156.136 62.3296 156.28 62.1696 156.344C61.7536 156.504 61.3696 156.168 61.2416 155.8C61.0976 155.416 61.1136 155 61.0976 154.6C61.0496 153.752 61.0816 150.6 61.0656 150.408C60.5536 150.872 59.8016 151.288 58.9216 151.528C58.7296 151.592 58.3456 151.672 58.3456 151.672C58.3776 151.688 58.4416 151.72 58.5216 151.752C58.8096 151.896 59.0656 152.104 59.2096 152.392C59.3376 152.664 59.3376 152.968 59.3216 153.256C59.3056 153.672 59.2896 154.104 59.2896 154.536C59.2896 154.936 59.3376 155.352 59.4976 155.72C59.8816 156.584 60.8576 157.08 61.7696 157.032C62.1056 157.016 62.4256 156.92 62.6816 156.728C62.9856 156.488 63.2416 155.976 63.6896 156.008C63.6896 156.344 63.6896 156.68 63.6896 157.016C63.9616 157.016 66.1376 157.016 66.4096 157.016C66.3456 156.952 66.2816 156.904 66.2176 156.84ZM72.279 154.664C72.151 154.536 71.943 154.472 71.767 154.504C71.559 154.536 71.415 154.68 71.383 154.728C70.903 155.24 71.591 156.376 70.567 156.504C70.199 156.552 69.815 156.28 69.655 155.96C69.543 155.688 69.511 155.384 69.511 155.096C69.511 154.024 69.511 151.096 69.511 150.728H71.095C71.255 150.728 71.383 150.584 71.383 150.424C71.383 150.264 71.255 150.136 71.095 150.136H69.511C69.527 149.304 69.527 148.472 69.527 147.64C69.511 147.672 69.495 147.72 69.463 147.768C69.447 147.8 69.335 147.992 69.191 148.2C69.031 148.424 68.871 148.648 68.679 148.84C68.423 149.112 68.151 149.352 67.847 149.56C67.559 149.768 67.223 149.976 66.871 150.088C66.823 150.104 66.759 150.12 66.711 150.12C66.631 150.152 66.535 150.152 66.471 150.216C66.407 150.264 66.359 150.344 66.359 150.424C66.359 150.584 66.503 150.728 66.663 150.728H67.783C67.783 151.864 67.735 153.016 67.783 154.168C67.831 155.144 68.151 156.136 69.031 156.664C69.687 157.048 70.535 157.144 71.207 156.808C71.607 156.6 71.927 156.28 72.151 155.912C72.151 155.912 72.151 155.896 72.167 155.896C72.359 155.576 72.615 155 72.279 154.664ZM77.585 156.856C77.521 156.92 77.457 156.968 77.409 157.016H81.105C81.041 156.952 80.977 156.904 80.929 156.856C80.609 156.536 80.385 156.152 80.241 155.736C80.049 155.144 80.161 154.488 80.145 153.88C80.113 153 80.161 151.896 79.521 151.208C79.041 150.696 78.369 150.456 77.681 150.456C77.281 150.456 76.881 150.488 76.545 150.712C76.257 150.904 76.097 151.272 75.777 151.416C75.713 151.432 75.649 151.448 75.585 151.464C75.585 151.448 75.585 146.04 75.569 145.832C75.057 146.296 74.305 146.712 73.425 146.952C73.233 147.016 72.849 147.096 72.849 147.096C72.881 147.112 72.945 147.144 73.025 147.176C73.313 147.32 73.569 147.528 73.713 147.816C73.889 148.2 73.841 153.048 73.841 154.36C73.841 154.84 73.873 155.288 73.729 155.736C73.601 156.152 73.361 156.536 73.041 156.856C72.993 156.904 72.929 156.952 72.865 157.016H76.561C76.497 156.952 76.433 156.904 76.385 156.856C76.065 156.536 75.841 156.152 75.697 155.736C75.553 155.288 75.585 154.84 75.585 154.36C75.585 153.592 75.585 152.824 75.585 152.056C75.585 152.056 75.937 151.976 75.969 151.96C76.177 151.88 76.337 151.736 76.481 151.576C76.625 151.432 76.769 151.256 76.961 151.16C77.377 150.952 77.841 151.128 78.065 151.528C78.289 151.912 78.369 152.232 78.369 153.208C78.401 155.032 78.353 155.352 78.241 155.736C78.033 156.392 77.697 156.744 77.585 156.856ZM87.3795 155.176C87.1715 155.112 86.9955 155.16 86.9315 155.192C86.6115 155.288 86.4995 155.624 86.3395 155.896C86.2275 156.072 86.0995 156.248 85.9075 156.312C85.6995 156.392 85.4595 156.424 85.2355 156.44C84.9635 156.44 84.6115 156.44 84.3555 156.344C84.1155 156.248 83.8915 156.104 83.7155 155.896C83.4915 155.64 83.3795 155.304 83.3635 154.952C83.4275 154.824 83.5235 154.632 83.6835 154.44C83.8435 154.264 84.0195 154.104 84.2115 153.96C84.4035 153.832 84.6115 153.752 84.8195 153.688C85.1235 153.624 85.4115 153.608 85.7155 153.608C86.2595 153.592 86.8035 153.608 87.3635 153.608C87.5395 153.608 87.7315 153.608 87.9235 153.608C87.9235 153.608 87.9235 153.464 87.9235 153.448C87.8275 152.6 87.5555 151.768 86.8835 151.176C86.6755 151 86.4515 150.84 86.1955 150.712C85.0755 150.168 83.6355 150.328 82.6755 151.128C80.9795 152.568 81.2835 155.672 83.2835 156.68C83.6995 156.888 84.1795 157 84.6595 157.032C85.5395 157.08 86.5795 156.968 87.3315 156.44C87.4755 156.328 87.8755 155.944 87.7635 155.56C87.7155 155.384 87.5555 155.24 87.3795 155.176ZM83.3475 152.536C83.3795 152.152 83.3795 151.8 83.5875 151.528C83.9075 151.096 84.4355 151.032 84.5635 151.016C84.7075 151 85.1395 150.952 85.5395 151.208C86.0355 151.528 86.1315 152.072 86.1795 152.296C86.2275 152.6 86.2115 152.856 86.1795 153.016C86.1795 153.016 85.9075 153.016 85.8755 153.016C85.1875 153.048 84.5155 153.08 83.8915 153.448C83.6995 153.576 83.5075 153.736 83.3475 153.912C83.3475 153.848 83.3475 152.552 83.3475 152.536ZM93.5099 156.84C93.4459 156.904 93.3659 156.968 93.3339 157H97.0459C96.9819 156.952 96.9179 156.888 96.8539 156.84C96.5339 156.536 96.3099 156.152 96.1659 155.736C95.9739 155.128 96.0859 154.488 96.0699 153.864C96.0379 152.984 96.0859 151.896 95.4459 151.208C94.9659 150.696 94.2939 150.44 93.6059 150.44C93.2059 150.44 92.8059 150.488 92.4699 150.712C92.1819 150.904 92.0219 151.256 91.7019 151.4C91.6379 151.432 91.5739 151.448 91.5099 151.448C91.5099 151.336 91.5099 150.696 91.5099 150.488C91.5099 150.488 91.5099 150.488 91.4939 150.488C90.9819 150.952 90.2299 151.368 89.3499 151.608C89.1579 151.672 88.7739 151.752 88.7739 151.752C88.8059 151.768 88.8859 151.8 88.9659 151.832C88.9979 151.864 89.0459 151.88 89.0939 151.912C89.2539 152.008 89.4779 152.184 89.6219 152.488C89.7179 152.68 89.7499 152.856 89.7659 153C89.7659 153.016 89.7659 154.744 89.7659 154.888C89.7659 155.032 89.7499 155.176 89.7179 155.32C89.6059 155.928 89.3019 156.488 88.8699 156.92C88.8379 156.952 88.8059 156.984 88.7739 157C88.7899 157 88.7899 157 88.7899 157C88.8059 157 92.5019 157 92.5019 157C92.4379 156.952 92.3739 156.888 92.3099 156.824C91.9899 156.52 91.7659 156.136 91.6219 155.72C91.5259 155.4 91.5099 155.08 91.5099 154.744C91.5099 154.744 91.5099 152.072 91.5099 152.04C91.5099 152.056 91.8619 151.96 91.8939 151.944C92.1019 151.864 92.2619 151.736 92.4059 151.576C92.5499 151.416 92.6939 151.256 92.8859 151.16C93.3019 150.936 93.7659 151.112 93.9899 151.512C94.2139 151.896 94.2939 152.216 94.3099 153.192C94.3259 155.016 94.2779 155.352 94.1659 155.72C93.9579 156.376 93.6219 156.728 93.5099 156.84ZM102.467 154.664C102.339 154.536 102.131 154.472 101.955 154.504C101.747 154.536 101.603 154.68 101.571 154.728C101.091 155.24 101.779 156.376 100.755 156.504C100.387 156.552 100.003 156.28 99.8425 155.96C99.7305 155.688 99.6985 155.384 99.6985 155.096C99.6985 154.024 99.6985 151.096 99.6985 150.728H101.283C101.443 150.728 101.571 150.584 101.571 150.424C101.571 150.264 101.443 150.136 101.283 150.136H99.6985C99.7145 149.304 99.7145 148.472 99.7145 147.64C99.6985 147.672 99.6825 147.72 99.6505 147.768C99.6345 147.8 99.5225 147.992 99.3785 148.2C99.2185 148.424 99.0585 148.648 98.8665 148.84C98.6105 149.112 98.3385 149.352 98.0345 149.56C97.7465 149.768 97.4105 149.976 97.0585 150.088C97.0105 150.104 96.9465 150.12 96.8985 150.12C96.8185 150.152 96.7225 150.152 96.6585 150.216C96.5945 150.264 96.5465 150.344 96.5465 150.424C96.5465 150.584 96.6905 150.728 96.8505 150.728H97.9705C97.9705 151.864 97.9225 153.016 97.9705 154.168C98.0185 155.144 98.3385 156.136 99.2185 156.664C99.8745 157.048 100.723 157.144 101.395 156.808C101.795 156.6 102.115 156.28 102.339 155.912C102.339 155.912 102.339 155.896 102.355 155.896C102.547 155.576 102.803 155 102.467 154.664ZM104.877 150.12C105.453 150.12 105.933 149.656 105.933 149.064C105.933 148.488 105.453 148.008 104.877 148.008C104.285 148.008 103.821 148.488 103.821 149.064C103.821 149.656 104.285 150.12 104.877 150.12ZM103.197 157H106.877C106.812 156.952 106.765 156.904 106.701 156.84C106.381 156.536 106.157 156.152 106.013 155.736C105.917 155.416 105.901 155.08 105.901 154.76C105.885 153.544 105.901 150.696 105.885 150.504C105.373 150.968 104.621 151.368 103.741 151.624C103.549 151.688 103.165 151.768 103.165 151.768C103.197 151.784 103.277 151.8 103.34 151.848C103.453 151.896 103.805 152.088 104.013 152.488C104.141 152.76 104.157 153 104.157 153.144C104.157 153.544 104.157 153.944 104.157 154.328C104.157 154.664 104.173 155 104.109 155.336C103.997 155.96 103.677 156.568 103.197 157ZM113.497 155.576C113.433 155.384 113.273 155.24 113.097 155.192C112.905 155.112 112.729 155.176 112.665 155.192C112.313 155.304 112.217 155.656 112.041 155.944C111.801 156.312 111.481 156.408 111.049 156.424C110.777 156.44 110.489 156.44 110.217 156.36C109.561 156.216 109.129 155.608 109.097 154.936C109.097 154.92 109.097 154.904 109.097 154.888C109.097 154.504 109.081 152.904 109.113 152.488C109.129 152.136 109.225 151.8 109.465 151.544C109.849 151.096 110.345 151.016 110.889 151.016C111.353 151 111.753 151.096 111.977 151.528C112.121 151.864 112.121 152.312 112.473 152.504C112.537 152.536 112.697 152.632 112.905 152.6C113.081 152.584 113.273 152.472 113.369 152.296C113.545 151.96 113.225 151.496 113.113 151.368C112.713 150.936 112.121 150.616 111.545 150.504C109.897 150.168 108.105 150.824 107.529 152.504C107.417 152.808 107.369 153.144 107.369 153.48V153.96C107.369 154.776 107.689 155.56 108.265 156.12C108.857 156.696 109.609 156.952 110.393 157C110.505 157 110.617 157.016 110.745 157.016C111.529 157.016 112.393 156.92 113.065 156.44C113.193 156.328 113.609 155.944 113.497 155.576ZM119.701 147.08C119.845 147.528 119.829 147.992 119.829 148.456C119.829 149.448 119.829 153.368 119.829 154.36C119.829 154.824 119.845 155.272 119.701 155.736C119.573 156.152 119.333 156.536 119.013 156.84C118.965 156.888 118.901 156.952 118.837 157H122.549C122.485 156.952 122.421 156.888 122.357 156.84C122.037 156.536 121.813 156.152 121.669 155.736C121.525 155.272 121.557 154.824 121.557 154.36C121.557 153.368 121.557 149.448 121.557 148.456C121.557 147.992 121.525 147.528 121.669 147.08C121.813 146.664 122.037 146.28 122.357 145.976C122.421 145.912 122.485 145.864 122.549 145.816H118.837C118.901 145.864 118.965 145.912 119.013 145.976C119.333 146.28 119.573 146.664 119.701 147.08ZM128.041 156.84C127.977 156.904 127.897 156.968 127.865 157H131.577C131.513 156.952 131.449 156.888 131.385 156.84C131.065 156.536 130.841 156.152 130.697 155.736C130.505 155.128 130.617 154.488 130.601 153.864C130.569 152.984 130.617 151.896 129.977 151.208C129.497 150.696 128.825 150.44 128.137 150.44C127.737 150.44 127.337 150.488 127.001 150.712C126.713 150.904 126.553 151.256 126.233 151.4C126.169 151.432 126.105 151.448 126.041 151.448C126.041 151.336 126.041 150.696 126.041 150.488C126.041 150.488 126.041 150.488 126.025 150.488C125.513 150.952 124.761 151.368 123.881 151.608C123.689 151.672 123.305 151.752 123.305 151.752C123.337 151.768 123.417 151.8 123.497 151.832C123.529 151.864 123.577 151.88 123.625 151.912C123.785 152.008 124.009 152.184 124.153 152.488C124.249 152.68 124.281 152.856 124.297 153C124.297 153.016 124.297 154.744 124.297 154.888C124.297 155.032 124.281 155.176 124.249 155.32C124.137 155.928 123.833 156.488 123.401 156.92C123.369 156.952 123.337 156.984 123.305 157C123.321 157 123.321 157 123.321 157C123.337 157 127.033 157 127.033 157C126.969 156.952 126.905 156.888 126.841 156.824C126.521 156.52 126.297 156.136 126.153 155.72C126.057 155.4 126.041 155.08 126.041 154.744C126.041 154.744 126.041 152.072 126.041 152.04C126.041 152.056 126.393 151.96 126.425 151.944C126.633 151.864 126.793 151.736 126.937 151.576C127.081 151.416 127.225 151.256 127.417 151.16C127.833 150.936 128.297 151.112 128.521 151.512C128.745 151.896 128.825 152.216 128.841 153.192C128.857 155.016 128.809 155.352 128.697 155.72C128.489 156.376 128.153 156.728 128.041 156.84ZM139.288 156.84C138.968 156.536 138.744 156.152 138.6 155.736C138.456 155.288 138.488 154.824 138.488 154.36C138.488 152.072 138.472 149.8 138.472 147.512C138.472 147.496 138.472 147.48 138.472 147.448C138.472 147.112 138.472 146.776 138.472 146.44C138.472 146.232 138.472 146.04 138.472 145.832C137.96 146.296 137.208 146.712 136.328 146.968C136.136 147.016 135.736 147.096 135.736 147.096C135.784 147.112 135.848 147.144 135.928 147.176C136.216 147.32 136.472 147.528 136.616 147.832C136.792 148.184 136.744 148.6 136.744 148.984C136.76 149.576 136.76 150.184 136.76 150.776V151.432C136.36 151.384 136.2 151.048 135.928 150.792C135.144 150.072 133.816 150.568 133.096 151.144C132.648 151.512 132.312 152.024 132.136 152.568C131.928 153.224 131.912 154.008 132.072 154.664C132.2 155.208 132.488 155.72 132.872 156.12C133.4 156.648 134.12 156.968 134.872 157H139.464C139.416 156.952 139.352 156.904 139.288 156.84ZM136.712 155.912C136.664 156.072 136.568 156.2 136.44 156.296C136.312 156.376 136.168 156.424 136.024 156.424C136.024 156.424 135.128 156.424 135.112 156.424C134.728 156.392 134.36 156.216 134.104 155.912C133.864 155.64 133.752 155.304 133.736 154.952C133.736 154.936 133.736 152.536 133.736 152.52C133.752 151.832 134.056 151.24 134.728 151.096C134.872 151.064 135.144 151.048 135.288 151.096C135.448 151.144 135.576 151.272 135.704 151.416C135.848 151.592 136.008 151.768 136.296 151.896C136.44 151.96 136.584 152.008 136.76 152.024C136.76 152.024 136.76 155.144 136.76 155.368C136.76 155.544 136.76 155.736 136.712 155.912ZM141.783 150.12C142.359 150.12 142.839 149.656 142.839 149.064C142.839 148.488 142.359 148.008 141.783 148.008C141.191 148.008 140.727 148.488 140.727 149.064C140.727 149.656 141.191 150.12 141.783 150.12ZM140.103 157H143.783C143.719 156.952 143.671 156.904 143.607 156.84C143.287 156.536 143.063 156.152 142.919 155.736C142.823 155.416 142.807 155.08 142.807 154.76C142.791 153.544 142.807 150.696 142.791 150.504C142.279 150.968 141.527 151.368 140.647 151.624C140.455 151.688 140.071 151.768 140.071 151.768C140.103 151.784 140.183 151.8 140.247 151.848C140.359 151.896 140.711 152.088 140.919 152.488C141.047 152.76 141.063 153 141.063 153.144C141.063 153.544 141.063 153.944 141.063 154.328C141.063 154.664 141.079 155 141.015 155.336C140.903 155.96 140.583 156.568 140.103 157ZM151.615 156.936C151.247 156.616 150.975 156.2 150.831 155.752C150.703 155.32 150.703 154.888 150.719 154.44C150.719 153.592 150.831 152.68 150.447 151.88C150.143 151.272 149.631 150.824 148.991 150.6C148.511 150.44 148.015 150.36 147.503 150.392C146.799 150.44 146.111 150.68 145.551 151.128C145.279 151.352 145.039 151.624 144.991 151.976C144.959 152.248 145.119 152.488 145.359 152.568C145.663 152.68 145.999 152.536 146.159 152.28C146.303 152.04 146.319 151.768 146.447 151.528C146.575 151.24 146.863 151.064 147.167 151C147.647 150.872 148.255 150.888 148.623 151.272C148.767 151.432 148.847 151.656 148.911 151.864C148.991 152.152 148.975 152.776 148.975 152.792C148.847 152.952 148.703 153.08 148.527 153.192C147.839 153.608 146.959 153.528 146.175 153.528C145.839 153.512 145.503 153.544 145.215 153.672C144.223 154.104 144.079 155.576 144.767 156.344C145.279 156.92 146.127 157 146.815 157.016H151.695C151.679 157 151.647 156.968 151.615 156.936ZM148.975 155.704C148.975 156.104 148.655 156.44 148.239 156.44C148.239 156.44 147.439 156.44 147.263 156.44C146.783 156.392 146.367 156.136 146.159 155.736C145.983 155.384 145.951 154.872 146.223 154.52C146.415 154.264 146.703 154.168 147.007 154.12C147.151 154.104 147.311 154.104 147.455 154.088C147.615 154.072 147.775 154.056 147.935 154.024C148.255 153.96 148.559 153.848 148.847 153.672C148.895 153.656 148.927 153.624 148.975 153.576C148.975 153.848 148.975 155.704 148.975 155.704ZM156.994 156.84C156.93 156.904 156.85 156.968 156.818 157H160.53C160.466 156.952 160.402 156.888 160.338 156.84C160.018 156.536 159.794 156.152 159.65 155.736C159.458 155.128 159.57 154.488 159.554 153.864C159.522 152.984 159.57 151.896 158.93 151.208C158.45 150.696 157.778 150.44 157.09 150.44C156.69 150.44 156.29 150.488 155.954 150.712C155.666 150.904 155.506 151.256 155.186 151.4C155.122 151.432 155.058 151.448 154.994 151.448C154.994 151.336 154.994 150.696 154.994 150.488C154.994 150.488 154.994 150.488 154.978 150.488C154.466 150.952 153.714 151.368 152.834 151.608C152.642 151.672 152.258 151.752 152.258 151.752C152.29 151.768 152.37 151.8 152.45 151.832C152.482 151.864 152.53 151.88 152.578 151.912C152.738 152.008 152.962 152.184 153.106 152.488C153.202 152.68 153.234 152.856 153.25 153C153.25 153.016 153.25 154.744 153.25 154.888C153.25 155.032 153.234 155.176 153.202 155.32C153.09 155.928 152.786 156.488 152.354 156.92C152.322 156.952 152.29 156.984 152.258 157C152.274 157 152.274 157 152.274 157C152.29 157 155.986 157 155.986 157C155.922 156.952 155.858 156.888 155.794 156.824C155.474 156.52 155.25 156.136 155.106 155.72C155.01 155.4 154.994 155.08 154.994 154.744C154.994 154.744 154.994 152.072 154.994 152.04C154.994 152.056 155.346 151.96 155.378 151.944C155.586 151.864 155.746 151.736 155.89 151.576C156.034 151.416 156.178 151.256 156.37 151.16C156.786 150.936 157.25 151.112 157.474 151.512C157.698 151.896 157.778 152.216 157.794 153.192C157.81 155.016 157.762 155.352 157.65 155.72C157.442 156.376 157.106 156.728 156.994 156.84ZM174.005 145.976C173.861 145.88 173.685 145.816 173.493 145.816H166.325C166.197 145.816 166.069 145.848 165.941 145.896C165.621 146.024 165.429 146.344 165.429 146.696V148.472C165.429 149.032 165.909 149.512 166.469 149.528C167.045 149.544 167.541 149.048 167.541 148.472C167.541 148.024 167.269 147.656 166.885 147.496C166.757 147.448 166.629 147.416 166.485 147.416C166.341 147.416 166.197 147.448 166.069 147.496C166.037 147.448 166.005 147.4 166.005 147.336C166.005 147.32 165.989 147.32 165.989 147.304V146.664C165.989 146.52 166.117 146.376 166.261 146.376H168.869C169.013 146.392 169.109 146.52 169.109 146.664C169.109 148.248 169.109 153.384 169.109 154.36C169.109 154.824 169.125 155.288 168.981 155.736C168.853 156.152 168.613 156.536 168.293 156.84C168.245 156.904 168.181 156.952 168.117 157.016C168.389 157.016 171.413 157.016 171.685 157.016C171.621 156.952 171.557 156.904 171.493 156.84C171.189 156.536 170.949 156.152 170.821 155.736C170.677 155.288 170.693 154.824 170.693 154.36C170.693 152.168 170.693 149.976 170.693 147.784C170.693 147.416 170.693 147.032 170.693 146.664C170.693 146.52 170.805 146.376 170.965 146.376H173.573C173.701 146.392 173.797 146.52 173.797 146.664V147.304C173.797 147.32 173.797 147.32 173.797 147.336C173.797 147.4 173.765 147.448 173.733 147.496C173.605 147.448 173.461 147.416 173.317 147.416C173.173 147.416 173.029 147.448 172.917 147.496C172.533 147.656 172.261 148.04 172.261 148.472C172.261 149.048 172.741 149.528 173.317 149.528C173.893 149.528 174.373 149.032 174.373 148.472V146.696C174.373 146.408 174.229 146.136 174.005 145.976ZM180.928 156.936C180.56 156.616 180.288 156.2 180.144 155.752C180.016 155.32 180.016 154.888 180.032 154.44C180.032 153.592 180.144 152.68 179.76 151.88C179.456 151.272 178.944 150.824 178.304 150.6C177.824 150.44 177.328 150.36 176.816 150.392C176.112 150.44 175.424 150.68 174.864 151.128C174.592 151.352 174.352 151.624 174.304 151.976C174.272 152.248 174.432 152.488 174.672 152.568C174.976 152.68 175.312 152.536 175.472 152.28C175.616 152.04 175.632 151.768 175.76 151.528C175.888 151.24 176.176 151.064 176.48 151C176.96 150.872 177.568 150.888 177.936 151.272C178.08 151.432 178.16 151.656 178.224 151.864C178.304 152.152 178.288 152.776 178.288 152.792C178.16 152.952 178.016 153.08 177.84 153.192C177.152 153.608 176.272 153.528 175.488 153.528C175.152 153.512 174.816 153.544 174.528 153.672C173.536 154.104 173.392 155.576 174.08 156.344C174.592 156.92 175.44 157 176.128 157.016H181.008C180.992 157 180.96 156.968 180.928 156.936ZM178.288 155.704C178.288 156.104 177.968 156.44 177.552 156.44C177.552 156.44 176.752 156.44 176.576 156.44C176.096 156.392 175.68 156.136 175.472 155.736C175.296 155.384 175.264 154.872 175.536 154.52C175.728 154.264 176.016 154.168 176.32 154.12C176.464 154.104 176.624 154.104 176.768 154.088C176.928 154.072 177.088 154.056 177.248 154.024C177.568 153.96 177.872 153.848 178.16 153.672C178.208 153.656 178.24 153.624 178.288 153.576C178.288 153.848 178.288 155.704 178.288 155.704ZM185.507 157C185.507 157 185.507 157 185.523 157C186.323 156.888 187.171 156.552 187.651 155.864C187.971 155.416 187.987 154.808 187.795 154.312C187.683 154.072 187.523 153.816 187.315 153.656C186.963 153.368 186.467 153.256 186.051 153.128C185.571 152.984 185.107 152.84 184.675 152.6C184.515 152.52 184.387 152.424 184.259 152.312C184.147 152.184 184.067 152.04 184.035 151.864C183.987 151.464 184.339 151.112 184.691 150.984C184.963 150.888 185.251 150.856 185.539 150.888C185.763 150.904 186.083 150.952 186.227 151.16C186.291 151.256 186.323 151.368 186.339 151.48C186.387 151.8 186.515 152.088 186.851 152.184C187.043 152.248 187.267 152.2 187.411 152.088C187.587 151.96 187.619 151.752 187.555 151.56C187.347 150.936 186.675 150.616 186.083 150.472C185.187 150.28 184.179 150.28 183.347 150.68C182.979 150.872 182.611 151.16 182.403 151.528C182.131 152.024 182.147 152.648 182.435 153.112C182.723 153.56 183.267 153.768 184.355 154.168C184.787 154.328 185.251 154.424 185.635 154.648C185.987 154.856 186.275 155.288 186.163 155.72C186.115 155.896 186.003 156.04 185.859 156.152C185.235 156.648 184.291 156.6 183.587 156.312C183.363 156.232 183.107 156.104 182.995 155.88C182.867 155.624 182.931 155.32 182.867 155.048C182.755 154.456 181.971 154.472 181.779 155.016C181.555 155.64 182.115 156.152 182.595 156.424C183.459 156.936 184.499 157.128 185.507 157ZM194.092 154.664C193.964 154.536 193.756 154.472 193.58 154.504C193.372 154.536 193.228 154.68 193.196 154.728C192.716 155.24 193.404 156.376 192.38 156.504C192.012 156.552 191.628 156.28 191.468 155.96C191.356 155.688 191.324 155.384 191.324 155.096C191.324 154.024 191.324 151.096 191.324 150.728H192.908C193.068 150.728 193.196 150.584 193.196 150.424C193.196 150.264 193.068 150.136 192.908 150.136H191.324C191.34 149.304 191.34 148.472 191.34 147.64C191.324 147.672 191.308 147.72 191.276 147.768C191.26 147.8 191.148 147.992 191.004 148.2C190.844 148.424 190.684 148.648 190.492 148.84C190.236 149.112 189.964 149.352 189.66 149.56C189.372 149.768 189.036 149.976 188.684 150.088C188.636 150.104 188.572 150.12 188.524 150.12C188.444 150.152 188.348 150.152 188.284 150.216C188.22 150.264 188.171 150.344 188.171 150.424C188.171 150.584 188.316 150.728 188.476 150.728H189.596C189.596 151.864 189.548 153.016 189.596 154.168C189.644 155.144 189.964 156.136 190.844 156.664C191.5 157.048 192.348 157.144 193.02 156.808C193.42 156.6 193.74 156.28 193.964 155.912C193.964 155.912 193.964 155.896 193.98 155.896C194.172 155.576 194.428 155 194.092 154.664ZM200.817 155.176C200.609 155.112 200.433 155.16 200.369 155.192C200.049 155.288 199.937 155.624 199.777 155.896C199.665 156.072 199.537 156.248 199.345 156.312C199.137 156.392 198.897 156.424 198.673 156.44C198.401 156.44 198.049 156.44 197.793 156.344C197.553 156.248 197.329 156.104 197.153 155.896C196.929 155.64 196.817 155.304 196.801 154.952C196.865 154.824 196.961 154.632 197.121 154.44C197.281 154.264 197.457 154.104 197.649 153.96C197.841 153.832 198.049 153.752 198.257 153.688C198.561 153.624 198.849 153.608 199.153 153.608C199.697 153.592 200.241 153.608 200.801 153.608C200.977 153.608 201.169 153.608 201.361 153.608C201.361 153.608 201.361 153.464 201.361 153.448C201.265 152.6 200.993 151.768 200.321 151.176C200.113 151 199.889 150.84 199.633 150.712C198.513 150.168 197.073 150.328 196.113 151.128C194.417 152.568 194.721 155.672 196.721 156.68C197.137 156.888 197.617 157 198.097 157.032C198.977 157.08 200.017 156.968 200.769 156.44C200.913 156.328 201.313 155.944 201.201 155.56C201.153 155.384 200.993 155.24 200.817 155.176ZM196.785 152.536C196.817 152.152 196.817 151.8 197.025 151.528C197.345 151.096 197.873 151.032 198.001 151.016C198.145 151 198.577 150.952 198.977 151.208C199.473 151.528 199.569 152.072 199.617 152.296C199.665 152.6 199.649 152.856 199.617 153.016C199.617 153.016 199.345 153.016 199.313 153.016C198.625 153.048 197.953 153.08 197.329 153.448C197.137 153.576 196.945 153.736 196.785 153.912C196.785 153.848 196.785 152.552 196.785 152.536Z" fill="#DDCFAC"/>
<g clip-path="url(#clip0_17_464)">
<path d="M129.297 44.3742C130.406 48.1783 134.842 48.0797 138.24 48.0891C131.166 56.2719 125.915 74.6716 112.822 74.5574C112.822 76.2746 109.096 75.9681 107.644 76.028C101.961 76.2616 96.6993 74.2366 91.1698 74.0931C91.8972 78.5016 101.408 81.896 105.291 83.3504C116.363 87.4967 129.477 86.1747 138.711 78.5323C145.248 73.1212 149.714 66.0263 155.185 59.6979C155.796 62.2943 156.913 64.631 158.794 66.5942C159.634 67.4715 161.73 68.6117 161.998 66.5942C162.295 64.3548 160.585 61.5955 160.351 59.3124C160.003 55.9011 161.411 52.4867 160.65 49.0178C160.265 47.2626 157.853 44.9612 158.156 43.2373C158.778 39.6998 163.303 41.3551 165.255 39.7246C166.421 38.7507 165.736 36.0176 166.012 34.6226C159.365 32.6852 157.573 38.4053 152.343 40.0065C150.1 40.6933 146.937 39.0774 144.359 39.5536C139.151 40.5159 134.583 43.3629 129.297 44.3742Z" fill="#8E302A"/>
<path d="M153.303 42.0522C144.254 37.8128 139.152 44.1202 130.238 44.8385C131.753 47.2729 134.234 47.3032 136.828 46.6958L139.652 47.6245C133.547 54.6871 130.372 64.333 123.606 70.7618C115.123 78.8219 102.544 76.9608 92.1112 75.0217V75.486C97.4293 78.5522 102.602 81.902 108.586 83.6406C130.224 89.927 143.939 73.3314 155.185 57.8404C156.38 61.329 157.745 65.4117 161.305 67.1275C160.865 64.1823 159.572 61.323 159.582 58.3048C159.591 55.4471 160.79 52.8501 160.114 49.9464C159.604 47.7564 156.51 44.7401 157.352 42.56C158.495 39.6026 162.883 39.473 165.541 39.2662L165.07 36.9444H164.599V38.8018H164.129L165.07 34.6226C160.195 34.8423 155.13 37.4003 153.303 42.0522Z" fill="black" fill-opacity="0.35"/>
<path d="M162.717 35.5515V36.0159H164.599L162.717 35.5515ZM161.305 37.4089V37.8733L163.658 37.4089H161.305ZM160.363 37.8733V39.2663L161.305 38.802V38.3376L160.363 37.8733ZM156.597 38.3376L156.127 42.0525L155.185 44.8386H154.715L153.773 42.5169H145.301L146.242 43.9099C143.949 42.7384 142.845 41.7306 140.123 42.5169V42.9812L143.418 42.5169L142.476 44.8386L140.123 44.3742V43.9099L141.535 44.3742V43.9099L139.181 42.9812L138.711 44.3742H134.945V44.8386L139.652 43.9099L140.594 45.7673L139.181 45.3029L137.769 46.2316V46.696L140.594 46.2316L148.125 47.1603L147.183 48.5535C143.138 45.3652 139.521 53.3434 137.299 51.3396L135.887 53.6614L137.769 52.7326L135.416 54.1258V54.5901L135.887 55.5188L137.299 55.0545H135.416H134.945L134.004 58.3049L135.416 57.8406L131.65 66.1991C130.738 66.5406 129.73 66.8656 130.709 67.5921V68.0565C127.497 68.1782 126.039 68.7768 124.59 71.7713L126.472 69.4495L128.826 69.9139L118.941 75.0218V75.4862L121.295 75.0218L120.353 76.8792L115.176 76.4149L115.646 77.8079L102.467 77.3436V77.8079L106.703 78.2722V78.7367L104.349 79.6654H103.879C103.594 78.3805 103.272 78.4687 101.996 78.7367L95.8768 76.4149V76.8792L104.82 80.5941L107.174 79.6654V80.1298H105.291C107.276 83.3421 113.228 83.2028 116.588 83.8445V83.3802L114.705 81.9871L119.412 84.3089V83.8445L117.529 83.3802C117.8 82.2676 117.753 82.2254 116.588 81.9871V81.5228C118.568 81.7341 119.232 83.7267 121.295 83.8445C122.141 83.8929 125.988 83.2535 124.119 82.4515V81.9871L126.943 82.9158L126.002 81.9871L128.355 80.1298V80.5941L127.414 81.5228L127.885 82.4515L129.767 81.9871V81.5228H128.355V81.0585C129.319 80.693 129.319 80.4952 128.355 80.1298V79.6654H130.238V81.0585H131.18L131.65 80.5941L130.709 79.2011L132.592 78.7367L132.121 80.5941L134.475 79.2011L133.533 78.2722V77.8079L135.887 75.9505L138.24 76.4149V74.5575L138.711 75.9505C140.663 74.472 141.324 73.2211 141.535 70.8426H142.006V72.7001H142.476L144.359 69.9139L142.947 70.8426L143.418 68.5208H143.889L145.771 63.8772L144.83 67.5921L146.713 66.1991L144.83 68.5208V69.9139L147.183 65.2703L148.125 66.1991L150.478 59.698L150.949 60.6268H151.42V58.7693H151.89V60.1624H152.361L153.303 57.8406L152.832 59.2336C155.128 57.2261 153.944 55.384 153.773 52.7326H154.244L155.656 55.5188L155.185 52.7326H155.656L156.127 54.5901H156.597V52.7326L158.48 53.6614L157.539 52.2683V51.8039L158.01 50.4109L154.244 49.4822V49.9465H157.068L156.597 52.7326H156.127L156.597 51.3396L154.715 50.4109L155.185 52.7326H154.715L154.244 50.8752H153.773V52.7326H153.303L153.773 49.4822L152.361 49.9465L157.068 47.6248L156.597 48.5535H157.068L156.218 43.706L159.892 38.802L157.068 40.195L156.597 38.3376ZM162.246 38.3376V38.802H163.658L162.246 38.3376Z" fill="#8E302A"/>
<path d="M155.185 44.8381L154.715 47.6243H155.185V44.8381Z" fill="black" fill-opacity="0.35"/>
<path d="M134.004 45.7668V46.2312L137.299 46.6955L138.24 45.7668H134.004Z" fill="#8E302A"/>
<path d="M146.242 49.0176L142.006 62.0196C146.654 59.6634 152.71 55.9047 152.361 49.9463H151.89L149.066 54.1254L146.242 55.5186V49.0176Z" fill="black" fill-opacity="0.35"/>
<path d="M158.951 51.3391V52.7322H159.422L158.951 51.3391Z" fill="#8E302A"/>
<path d="M158.951 53.1968L158.01 54.1255V54.5898L158.951 53.1968ZM149.066 54.1255L148.596 55.983L150.478 55.0542L149.066 54.1255Z" fill="#8E302A"/>
<path d="M156.127 55.0542V55.983H157.068V55.0542H156.127ZM157.539 55.0542L158.01 56.9117H158.48L159.422 56.4474L157.539 55.0542ZM145.301 55.5187L146.242 57.8404V55.5187H145.301Z" fill="#8E302A"/>
<path d="M155.185 55.9827L155.656 57.8402H156.127L155.185 55.9827Z" fill="#8E302A"/>
<path d="M151.42 56.4473L146.242 63.877C148.173 62.507 152.493 58.969 151.42 56.4473Z" fill="black" fill-opacity="0.35"/>
<path d="M157.068 57.376V59.2334H157.539L158.48 57.376H157.068Z" fill="#8E302A"/>
<path d="M144.359 57.8403L142.947 60.6264L145.301 57.8403H144.359ZM130.709 62.4839L133.533 61.5551L132.592 60.1621L134.474 59.2334C132.408 58.9583 131.458 60.8178 130.709 62.4839ZM138.24 60.6264V63.4126L140.123 60.6264H138.24Z" fill="#8E302A"/>
<path d="M132.121 62.4839L131.179 62.9482V63.4127L132.121 62.4839Z" fill="#8E302A"/>
<path d="M130.238 62.9482L129.767 63.8769H130.709L130.238 62.9482ZM158.48 63.4126V63.8769H159.892L158.48 63.4126ZM129.297 64.3414L128.826 66.6631L127.414 67.1275V67.5918L129.297 67.1275V64.3414Z" fill="#8E302A"/>
<path d="M141.064 68.9849L140.123 71.3066L142.476 70.8423V69.4492L141.064 68.9849Z" fill="black" fill-opacity="0.35"/>
<path d="M122.236 72.6997V73.1641L124.119 72.6997H122.236Z" fill="#8E302A"/>
<path d="M134.004 73.6287L132.592 74.5574V75.0217L134.474 74.093L134.004 73.6287Z" fill="black" fill-opacity="0.35"/>
<path d="M136.357 74.0928L131.18 76.8789V77.3432C133.066 76.9843 135.794 76.0588 136.357 74.0928Z" fill="black" fill-opacity="0.35"/>
<path d="M135.416 77.3433L134.945 78.272H135.887L135.416 77.3433Z" fill="#8E302A"/>
<path d="M106.232 80.5938V81.0581H107.644L106.232 80.5938ZM112.822 81.0581L113.764 82.9155H114.234L112.822 81.0581ZM119.883 81.0581V81.5224L121.766 82.4511L119.883 81.0581ZM123.178 81.0581V81.5224H124.59L123.178 81.0581Z" fill="black" fill-opacity="0.35"/>
<mask id="mask0_17_464" style="mask-type:luminance" maskUnits="userSpaceOnUse" x="56" y="8" width="98" height="106">
<path d="M99.2202 8.00006L56.1509 82.0312L110.856 113.375L153.926 39.3441L99.2202 8.00006Z" fill="white"/>
</mask>
<g mask="url(#mask0_17_464)">
<path d="M94.7183 52.8868C98.5926 53.8356 100.724 49.9741 102.432 47.058C106.036 57.2294 119.467 70.9422 112.821 82.1374C114.319 82.996 112.188 86.0456 111.515 87.3227C108.877 92.324 104.479 95.8336 101.589 100.514C105.8 102.093 113.518 95.6167 116.728 93.0066C125.882 85.5643 131.286 73.6318 129.234 61.8751C127.78 53.5508 123.822 46.1659 121.035 38.2988C123.606 39.072 126.204 39.2808 128.857 38.6458C130.043 38.3619 132.086 37.131 130.459 35.8921C128.654 34.5167 125.391 34.6072 123.282 33.6663C120.13 32.2604 117.855 29.3428 114.447 28.262C112.723 27.7154 109.509 28.6376 108.156 27.5151C105.38 25.212 109.087 22.1507 108.64 19.6578C108.373 18.1693 105.645 17.3913 104.566 16.4568C99.5518 21.2006 103.648 25.6007 102.43 30.8962C101.908 33.1677 98.916 35.0778 98.0428 37.5312C96.2787 42.4882 96.4788 47.8382 94.7183 52.8868Z" fill="#335A1C"/>
<path d="M104.695 31.0943C96.4714 36.7511 99.4244 44.2899 95.5943 52.3099C98.4764 52.225 99.7434 50.1078 100.51 47.575L102.733 45.6121C105.843 54.3907 112.673 61.9424 114.9 70.9717C117.693 82.2922 109.779 92.1723 102.87 100.169L103.276 100.402C108.61 97.364 114.12 94.5937 118.629 90.3199C134.934 74.8666 127.309 54.7813 119.414 37.3702C123.056 38.0881 127.301 38.9559 130.578 36.7547C127.788 35.6595 124.647 35.3415 122.018 33.824C119.529 32.3871 117.861 30.0585 114.99 29.1872C112.824 28.5304 108.645 29.6812 107.163 27.8675C105.154 25.4069 107.235 21.5706 108.383 19.1831L106.121 18.4268L105.886 18.8313L107.507 19.7601L107.272 20.1646L104.095 17.2659C101.849 21.5661 101.549 27.1978 104.695 31.0943Z" fill="black" fill-opacity="0.4"/>
<path d="M103.729 19.7529L104.134 19.9851L105.076 18.3669L103.729 19.7529ZM104.644 21.8952L105.049 22.1274L105.821 19.8726L104.644 21.8952ZM104.578 22.9365L105.794 23.6331L105.86 22.5919L105.454 22.3596L104.578 22.9365ZM103.101 26.405L106.107 28.667L108.068 30.8692L107.832 31.2737L105.336 30.9219L101.099 38.2037L102.786 38.0911C100.617 39.476 99.1854 39.921 98.5106 42.6537L98.9158 42.8859L100.158 39.8219L101.713 41.7918L100.131 43.5824L99.7262 43.3502L100.837 42.3687L100.432 42.1366L98.445 43.6949L99.4254 44.796L97.5426 48.0323L97.9478 48.2645L99.4908 43.7547L101.582 43.8744L100.471 44.8557L100.576 46.5337L100.981 46.7659L101.988 44.1066L106.564 38.0982L107.309 39.6038C102.504 41.4868 107.657 48.5843 104.798 49.4923L106.118 51.8668L106.249 49.7843L106.288 52.5035L106.693 52.7356L107.739 52.7955L108.039 51.3497L107.098 52.9678L106.863 53.3724L109.229 55.8068L109.529 54.361L114.941 61.7765C114.783 62.7311 114.562 63.7601 115.686 63.2821L116.091 63.5142C114.591 66.3358 114.385 67.8877 116.273 70.6307L115.188 67.8517L116.77 66.0612L116.285 77.1105L116.691 77.3427L117.462 75.0879L118.612 76.8256L115.618 81.0433L117.069 81.3354L110.074 92.4304L110.479 92.6626L113.003 89.2539L113.408 89.4861L113.042 91.9731L112.806 92.3777C111.543 91.9802 111.459 92.3007 111.055 93.5315L105.969 97.6296L106.374 97.8618L114.088 92.0329L114.454 89.5459L114.859 89.7781L113.918 91.3962C117.714 91.2962 120.568 86.1111 122.808 83.5446L122.403 83.3124L120.246 84.2341L124.625 81.3495L124.22 81.1173L122.873 82.5034C122.038 81.7146 121.977 81.7337 121.187 82.6159L120.782 82.3837C121.956 80.7875 124.027 81.2134 125.162 79.4992C125.627 78.7961 126.992 75.1697 125.358 76.3754L124.953 76.1432L127.175 74.1804L125.894 74.525L125.45 71.5737L125.855 71.8058L126.195 73.0792L127.241 73.1391L127.777 71.2887L127.372 71.0565L126.666 72.2702L126.26 72.038C126.423 71.0271 126.251 70.9283 125.45 71.5737L125.045 71.3415L125.986 69.7233L127.202 70.4199L127.673 69.6107L127.503 68.9741L125.816 69.0865L126.352 67.2362L127.738 68.5695L127.699 65.8502L126.418 66.1949L126.013 65.9627L125.569 63.0114L127.151 61.2208L125.53 60.2921L126.981 60.5841C126.666 58.1672 125.905 56.9734 123.935 55.6029L124.171 55.1984L125.792 56.1271L126.027 55.7226L124.537 52.7113L124.641 54.3892L122.851 52.8239L123.086 52.4192L119.975 48.4793L122.746 51.1459L122.472 48.8312L123.557 51.6102L124.772 52.3067L121.897 47.9622L123.178 47.6176L118.682 42.3443L119.727 42.4042L119.963 41.9996L118.342 41.0709L118.577 40.6663L119.793 41.3629L120.028 40.9584L118.473 38.9884L119.453 40.0894C118.849 37.1123 116.65 37.209 114.251 36.0298L114.486 35.6253L117.623 35.8047L114.957 34.8162L115.192 34.4117L117.048 34.9359L117.284 34.5313L115.663 33.6025L117.415 32.4487L115.728 32.5613L115.323 32.3292L114.343 31.228L111.649 34.0001L112.055 34.2323L113.467 31.805L115.663 33.6025L115.427 34.0072L114.447 32.906L112.695 34.0598L114.957 34.8162L114.721 35.2208L112.865 34.6966L112.63 35.1011L114.251 36.0298L114.015 36.4343L111.414 34.4046L111.113 35.8504L111.441 30.6441L112.016 31.513L112.251 31.1085L107.596 29.4153L105.153 23.8054L104.957 26.9292L103.101 26.405ZM105.925 21.5506L106.33 21.7827L107.036 20.5691L105.925 21.5506Z" fill="#335A1C"/>
<path d="M108.068 30.8694L110.264 32.6671L110.499 32.2624L108.068 30.8694Z" fill="black" fill-opacity="0.4"/>
<path d="M98.2875 49.5379L98.6927 49.7701L100.745 47.1705L100.406 45.897L98.2875 49.5379Z" fill="#335A1C"/>
<path d="M107.243 40.6453L116.471 50.7871C116.739 45.6142 116.487 38.5301 111.113 35.8506L110.878 36.2551L113.113 40.7721L112.916 43.8958L107.243 40.6453Z" fill="black" fill-opacity="0.4"/>
<path d="M115.624 30.8833L116.84 31.5798L117.075 31.1753L115.624 30.8833Z" fill="#335A1C"/>
<path d="M117.245 31.8123L117.584 33.0857L117.99 33.3179L117.245 31.8123ZM113.113 40.772L114.498 42.1053L114.629 40.0227L113.113 40.772Z" fill="#335A1C"/>
<path d="M117.454 35.1682L118.264 35.6326L118.735 34.8234L117.924 34.3591L117.454 35.1682ZM118.16 33.9546L120.016 34.4788L120.251 34.0742L120.317 33.033L118.16 33.9546ZM112.446 44.7048L114.943 45.0567L112.916 43.8958L112.446 44.7048Z" fill="#335A1C"/>
<path d="M117.793 36.4417L119.65 36.9658L119.885 36.5612L117.793 36.4417Z" fill="#335A1C"/>
<path d="M116.316 39.9099L120.21 48.0748C119.98 45.7303 119.053 40.2481 116.316 39.9099Z" fill="black" fill-opacity="0.4"/>
<path d="M119.95 35.5199L121.571 36.4487L121.807 36.0441L120.656 34.3064L119.95 35.5199Z" fill="#335A1C"/>
<path d="M114.001 46.6747L115.726 49.2814L114.472 45.8657L114.001 46.6747ZM111.228 60.7283L111.83 57.8367L110.143 57.9492L110.274 55.8667C109.001 57.5051 110.149 59.251 111.228 60.7283ZM113.373 53.3269L115.804 54.7199L114.314 51.7087L113.373 53.3269Z" fill="#335A1C"/>
<path d="M111.934 59.5146L111.869 60.5558L112.274 60.788L111.934 59.5146Z" fill="#335A1C"/>
<path d="M111.398 61.3648L111.973 62.2338L112.444 61.4247L111.398 61.3648ZM125.924 37.3245L126.33 37.5567L127.036 36.343L125.924 37.3245ZM112.143 62.8705L113.934 64.436L113.633 65.8817L114.038 66.1139L114.574 64.2635L112.143 62.8705Z" fill="#335A1C"/>
<path d="M122.079 55.0789L123.634 57.0489L124.406 54.7939L123.19 54.0974L122.079 55.0789Z" fill="black" fill-opacity="0.4"/>
<path d="M115.907 73.1179L116.312 73.3501L116.848 71.4998L115.907 73.1179Z" fill="#335A1C"/>
<path d="M122.601 63.4687L122.705 65.1467L123.111 65.3789L123.242 63.2964L122.601 63.4687Z" fill="black" fill-opacity="0.4"/>
<path d="M124.183 61.6785L124.026 67.5215L124.431 67.7536C125.061 65.9531 125.617 63.1457 124.183 61.6785Z" fill="black" fill-opacity="0.4"/>
<path d="M126.549 64.1125L127.124 64.9814L127.595 64.1723L126.549 64.1125Z" fill="#335A1C"/>
<path d="M114.794 90.8194L115.199 91.0515L115.905 89.838L114.794 90.8194ZM118.494 85.388L120.585 85.5076L120.821 85.1031L118.494 85.388ZM122.024 79.3199L122.429 79.552L124.181 78.3982L122.024 79.3199ZM123.672 76.4881L124.077 76.7202L124.783 75.5066L123.672 76.4881Z" fill="black" fill-opacity="0.4"/>
</g>
</g>
<defs>
<clipPath id="clip0_17_464">
<rect width="116" height="106" fill="white" transform="translate(66 8)"/>
</clipPath>
</defs>
</svg>
